<svg width="512" height="512" xmlns="http://www.w3.org/2000/svg">
  <defs>
    <linearGradient id="black-ebony-light-grad" x1="0%" y1="0%" x2="100%" y2="100%">
      <stop offset="0%" style="stop-color:#2A2A2A;stop-opacity:1" />
      <stop offset="50%" style="stop-color:#1F1F1F;stop-opacity:1" />
      <stop offset="100%" style="stop-color:#1A1A1A;stop-opacity:1" />
    </linearGradient>
  </defs>
  <rect width="512" height="512" fill="url(#black-ebony-light-grad)"/>
  <path d="M0,55 Q128,52 256,55 T512,55" stroke="#151515" stroke-width="0.9" opacity="0.4" fill="none"/>
  <path d="M0,125 Q128,122 256,125 T512,125" stroke="#1A1A1A" stroke-width="0.7" opacity="0.3" fill="none"/>
  <path d="M0,195 Q128,192 256,195 T512,195" stroke="#151515" stroke-width="1.1" opacity="0.5" fill="none"/>
  <path d="M0,265 Q128,262 256,265 T512,265" stroke="#1A1A1A" stroke-width="0.8" opacity="0.3" fill="none"/>
  <path d="M0,335 Q128,332 256,335 T512,335" stroke="#151515" stroke-width="0.9" opacity="0.4" fill="none"/>
  <path d="M0,405 Q128,402 256,405 T512,405" stroke="#1A1A1A" stroke-width="0.7" opacity="0.3" fill="none"/>
  <circle cx="110" cy="85" r="0.8" fill="#151515" opacity="0.2"/>
  <circle cx="340" cy="155" r="0.6" fill="#1A1A1A" opacity="0.15"/>
  <circle cx="190" cy="225" r="1.0" fill="#151515" opacity="0.25"/>
  <circle cx="460" cy="295" r="0.7" fill="#1A1A1A" opacity="0.2"/>
  <circle cx="140" cy="365" r="0.9" fill="#151515" opacity="0.22"/>
</svg>