<svg width="512" height="512" xmlns="http://www.w3.org/2000/svg">
  <defs>
    <linearGradient id="black-ebony-dark-grad" x1="0%" y1="0%" x2="100%" y2="100%">
      <stop offset="0%" style="stop-color:#0A0A0A;stop-opacity:1" />
      <stop offset="50%" style="stop-color:#080808;stop-opacity:1" />
      <stop offset="100%" style="stop-color:#060606;stop-opacity:1" />
    </linearGradient>
  </defs>
  <rect width="512" height="512" fill="url(#black-ebony-dark-grad)"/>
  <path d="M0,50 Q128,47 256,50 T512,50" stroke="#040404" stroke-width="0.8" opacity="0.5" fill="none"/>
  <path d="M0,120 Q128,117 256,120 T512,120" stroke="#060606" stroke-width="0.6" opacity="0.4" fill="none"/>
  <path d="M0,190 Q128,187 256,190 T512,190" stroke="#040404" stroke-width="1.0" opacity="0.6" fill="none"/>
  <path d="M0,260 Q128,257 256,260 T512,260" stroke="#060606" stroke-width="0.7" opacity="0.4" fill="none"/>
  <path d="M0,330 Q128,327 256,330 T512,330" stroke="#040404" stroke-width="0.8" opacity="0.5" fill="none"/>
  <path d="M0,400 Q128,397 256,400 T512,400" stroke="#060606" stroke-width="0.6" opacity="0.4" fill="none"/>
  <circle cx="105" cy="80" r="0.7" fill="#040404" opacity="0.3"/>
  <circle cx="335" cy="150" r="0.5" fill="#060606" opacity="0.25"/>
  <circle cx="185" cy="220" r="0.9" fill="#040404" opacity="0.35"/>
  <circle cx="455" cy="290" r="0.6" fill="#060606" opacity="0.3"/>
  <circle cx="135" cy="360" r="0.8" fill="#040404" opacity="0.32"/>
</svg>