<svg width="512" height="512" xmlns="http://www.w3.org/2000/svg">
  <defs>
    <linearGradient id="maple-light-grad" x1="0%" y1="0%" x2="100%" y2="100%">
      <stop offset="0%" style="stop-color:#D2691E;stop-opacity:1" />
      <stop offset="50%" style="stop-color:#E6A85C;stop-opacity:1" />
      <stop offset="100%" style="stop-color:#B8860B;stop-opacity:1" />
    </linearGradient>
    <pattern id="maple-figure" patternUnits="userSpaceOnUse" width="60" height="30">      <path d="M0,15 Q15,5 30,15 T60,15" stroke="#A0740A" stroke-width="0.8" opacity="0.4" fill="none"/>
      <path d="M0,25 Q15,15 30,25 T60,25" stroke="#8B6914" stroke-width="0.6" opacity="0.3" fill="none"/>
    </pattern>
  </defs>
  <rect width="512" height="512" fill="url(#maple-light-grad)"/>
  <rect width="512" height="512" fill="url(#maple-figure)" opacity="0.6"/>
  <path d="M0,30 Q128,20 256,30 T512,30" stroke="#B8860B" stroke-width="1.8" opacity="0.5" fill="none"/>
  <path d="M0,80 Q128,70 256,80 T512,80" stroke="#E6A85C" stroke-width="1.4" opacity="0.4" fill="none"/>
  <path d="M0,130 Q128,120 256,130 T512,130" stroke="#A0740A" stroke-width="2.0" opacity="0.6" fill="none"/>
  <path d="M0,180 Q128,170 256,180 T512,180" stroke="#B8860B" stroke-width="1.2" opacity="0.4" fill="none"/>
  <path d="M0,230 Q128,220 256,230 T512,230" stroke="#E6A85C" stroke-width="1.6" opacity="0.5" fill="none"/>
  <path d="M0,280 Q128,270 256,280 T512,280" stroke="#A0740A" stroke-width="1.8" opacity="0.4" fill="none"/>
  <path d="M0,330 Q128,320 256,330 T512,330" stroke="#B8860B" stroke-width="1.5" opacity="0.5" fill="none"/>
  <path d="M0,380 Q128,370 256,380 T512,380" stroke="#E6A85C" stroke-width="1.3" opacity="0.4" fill="none"/>
  <path d="M0,430 Q128,420 256,430 T512,430" stroke="#A0740A" stroke-width="1.7" opacity="0.5" fill="none"/>
  <circle cx="70" cy="55" r="1.3" fill="#B8860B" opacity="0.25"/>
  <circle cx="250" cy="105" r="1.0" fill="#E6A85C" opacity="0.2"/>
  <circle cx="430" cy="165" r="1.5" fill="#A0740A" opacity="0.3"/>
  <circle cx="120" cy="225" r="1.2" fill="#B8860B" opacity="0.25"/>
  <circle cx="340" cy="285" r="1.4" fill="#E6A85C" opacity="0.3"/>
  <circle cx="180" cy="345" r="1.1" fill="#A0740A" opacity="0.2"/>
  <circle cx="460" cy="405" r="1.3" fill="#B8860B" opacity="0.25"/>
</svg>