<svg width="512" height="512" xmlns="http://www.w3.org/2000/svg">
  <defs>
    <linearGradient id="pale-ebony-dark-grad" x1="0%" y1="0%" x2="100%" y2="100%">
      <stop offset="0%" style="stop-color:#2A2520;stop-opacity:1" />
      <stop offset="50%" style="stop-color:#1A1612;stop-opacity:1" />
      <stop offset="100%" style="stop-color:#16120E;stop-opacity:1" />
    </linearGradient>
  </defs>
  <rect width="512" height="512" fill="url(#pale-ebony-dark-grad)"/>
  <path d="M0,45 Q128,40 256,45 T512,45" stroke="#120E0A" stroke-width="1.5" opacity="0.6" fill="none"/>
  <path d="M0,115 Q128,110 256,115 T512,115" stroke="#1A1612" stroke-width="1.2" opacity="0.5" fill="none"/>
  <path d="M0,195 Q128,190 256,195 T512,195" stroke="#120E0A" stroke-width="1.8" opacity="0.7" fill="none"/>
  <path d="M0,275 Q128,270 256,275 T512,275" stroke="#1A1612" stroke-width="1.0" opacity="0.5" fill="none"/>
  <path d="M0,355 Q128,350 256,355 T512,355" stroke="#120E0A" stroke-width="1.6" opacity="0.6" fill="none"/>
  <path d="M0,435 Q128,430 256,435 T512,435" stroke="#1A1612" stroke-width="1.3" opacity="0.5" fill="none"/>
  <circle cx="120" cy="75" r="1.5" fill="#120E0A" opacity="0.3"/>
  <circle cx="380" cy="145" r="1.2" fill="#1A1612" opacity="0.35"/>
  <circle cx="220" cy="245" r="1.8" fill="#120E0A" opacity="0.4"/>
  <circle cx="480" cy="315" r="1.0" fill="#1A1612" opacity="0.3"/>
  <circle cx="170" cy="395" r="1.4" fill="#120E0A" opacity="0.35"/>
</svg>