<svg width="256" height="256" xmlns="http://www.w3.org/2000/svg">
  <defs>
    <linearGradient id="pale-moon-dark-opt-grad" x1="0%" y1="0%" x2="100%" y2="100%">
      <stop offset="0%" style="stop-color:#2A2520;stop-opacity:1" />
      <stop offset="50%" style="stop-color:#1A1612;stop-opacity:1" />
      <stop offset="100%" style="stop-color:#120E0A;stop-opacity:1" />
    </linearGradient>
    <pattern id="pale-moon-dark-figure" patternUnits="userSpaceOnUse" width="128" height="64">      <path d="M0,32 Q32,12 64,32 T128,32" stroke="#000000" stroke-width="1.8" opacity="0.9" fill="none"/>
      <path d="M0,48 Q32,28 64,48 T128,48" stroke="#0A0A0A" stroke-width="1.2" opacity="0.7" fill="none"/>
    </pattern>
  </defs>
  <rect width="256" height="256" fill="url(#pale-moon-dark-opt-grad)"/>
  <rect width="256" height="256" fill="url(#pale-moon-dark-figure)" opacity="0.7"/>
  
  <!-- Seamless black lines -->
  <path d="M-20,38 Q60,18 140,38 Q220,58 300,38" stroke="#000000" stroke-width="2" opacity="1.0" fill="none"/>
  <path d="M-20,78 Q70,48 150,78 Q230,108 310,78" stroke="#0A0A0A" stroke-width="2.5" opacity="0.9" fill="none"/>
  <path d="M-20,118 Q80,88 160,118 Q240,148 320,118" stroke="#000000" stroke-width="2.2" opacity="1.0" fill="none"/>
  <path d="M-20,158 Q90,128 170,158 Q250,188 330,158" stroke="#0A0A0A" stroke-width="2.8" opacity="0.9" fill="none"/>
  <path d="M-20,198 Q100,168 180,198 Q260,228 340,198" stroke="#000000" stroke-width="2" opacity="1.0" fill="none"/>
  
  <!-- Subtle black patches -->
  <ellipse cx="85" cy="58" rx="15" ry="5" fill="#000000" opacity="0.5"/>
  <ellipse cx="185" cy="98" rx="18" ry="6" fill="#0A0A0A" opacity="0.6"/>
  <ellipse cx="125" cy="138" rx="12" ry="4" fill="#000000" opacity="0.55"/>
  <ellipse cx="225" cy="178" rx="20" ry="7" fill="#0A0A0A" opacity="0.5"/>
  <ellipse cx="95" cy="218" rx="16" ry="5" fill="#000000" opacity="0.6"/>
  
  <!-- Wood pores -->
  <circle cx="65" cy="48" r="0.8" fill="#0A0A0A" opacity="0.3"/>
  <circle cx="145" cy="88" r="1.0" fill="#000000" opacity="0.35"/>
  <circle cx="205" cy="128" r="0.6" fill="#0A0A0A" opacity="0.4"/>
  <circle cx="105" cy="168" r="0.9" fill="#000000" opacity="0.3"/>
  <circle cx="165" cy="208" r="0.7" fill="#0A0A0A" opacity="0.38"/>
</svg>