<svg width="256" height="256" xmlns="http://www.w3.org/2000/svg">
  <defs>
    <linearGradient id="pale-moon-light-opt-grad" x1="0%" y1="0%" x2="100%" y2="100%">
      <stop offset="0%" style="stop-color:#F5F1E8;stop-opacity:1" />
      <stop offset="50%" style="stop-color:#E8E0D0;stop-opacity:1" />
      <stop offset="100%" style="stop-color:#D4C8B8;stop-opacity:1" />
    </linearGradient>
    <pattern id="pale-moon-figure" patternUnits="userSpaceOnUse" width="128" height="64">      <path d="M0,32 Q32,12 64,32 T128,32" stroke="#1A1A1A" stroke-width="1.8" opacity="0.7" fill="none"/>
      <path d="M0,48 Q32,28 64,48 T128,48" stroke="#2A2A2A" stroke-width="1.2" opacity="0.5" fill="none"/>
    </pattern>
  </defs>
  <rect width="256" height="256" fill="url(#pale-moon-light-opt-grad)"/>
  <rect width="256" height="256" fill="url(#pale-moon-figure)" opacity="0.6"/>
  
  <!-- Seamless black lines -->
  <path d="M-20,40 Q60,20 140,40 Q220,60 300,40" stroke="#1A1A1A" stroke-width="2" opacity="0.8" fill="none"/>
  <path d="M-20,80 Q70,50 150,80 Q230,110 310,80" stroke="#000000" stroke-width="2.5" opacity="0.9" fill="none"/>
  <path d="M-20,120 Q80,90 160,120 Q240,150 320,120" stroke="#1A1A1A" stroke-width="2.2" opacity="0.8" fill="none"/>
  <path d="M-20,160 Q90,130 170,160 Q250,190 330,160" stroke="#000000" stroke-width="2.8" opacity="0.9" fill="none"/>
  <path d="M-20,200 Q100,170 180,200 Q260,230 340,200" stroke="#1A1A1A" stroke-width="2" opacity="0.8" fill="none"/>
  
  <!-- Subtle black patches -->
  <ellipse cx="80" cy="60" rx="15" ry="5" fill="#1A1A1A" opacity="0.3"/>
  <ellipse cx="180" cy="100" rx="18" ry="6" fill="#000000" opacity="0.4"/>
  <ellipse cx="120" cy="140" rx="12" ry="4" fill="#1A1A1A" opacity="0.35"/>
  <ellipse cx="220" cy="180" rx="20" ry="7" fill="#000000" opacity="0.3"/>
  <ellipse cx="90" cy="220" rx="16" ry="5" fill="#1A1A1A" opacity="0.4"/>
  
  <!-- Wood pores -->
  <circle cx="60" cy="50" r="0.8" fill="#2A2A2A" opacity="0.2"/>
  <circle cx="140" cy="90" r="1.0" fill="#1A1A1A" opacity="0.25"/>
  <circle cx="200" cy="130" r="0.6" fill="#000000" opacity="0.3"/>
  <circle cx="100" cy="170" r="0.9" fill="#2A2A2A" opacity="0.2"/>
  <circle cx="160" cy="210" r="0.7" fill="#1A1A1A" opacity="0.28"/>
</svg>