<svg width="512" height="512" xmlns="http://www.w3.org/2000/svg">
  <defs>
    <linearGradient id="pau-ferro-light-grad" x1="0%" y1="0%" x2="100%" y2="100%">
      <stop offset="0%" style="stop-color:#654321;stop-opacity:1" />
      <stop offset="50%" style="stop-color:#7A5230;stop-opacity:1" />
      <stop offset="100%" style="stop-color:#8F5F3C;stop-opacity:1" />
    </linearGradient>
  </defs>
  <rect width="512" height="512" fill="url(#pau-ferro-light-grad)"/>
  <path d="M0,38 Q128,28 256,38 T512,38" stroke="#A46C49" stroke-width="2.1" opacity="0.7" fill="none"/>
  <path d="M0,88 Q128,78 256,88 T512,88" stroke="#7A5230" stroke-width="1.7" opacity="0.6" fill="none"/>
  <path d="M0,138 Q128,128 256,138 T512,138" stroke="#8F5F3C" stroke-width="2.4" opacity="0.8" fill="none"/>
  <path d="M0,188 Q128,178 256,188 T512,188" stroke="#A46C49" stroke-width="1.4" opacity="0.6" fill="none"/>
  <path d="M0,238 Q128,228 256,238 T512,238" stroke="#7A5230" stroke-width="2.0" opacity="0.7" fill="none"/>
  <path d="M0,288 Q128,278 256,288 T512,288" stroke="#8F5F3C" stroke-width="1.8" opacity="0.6" fill="none"/>
  <path d="M0,338 Q128,328 256,338 T512,338" stroke="#A46C49" stroke-width="2.2" opacity="0.8" fill="none"/>
  <path d="M0,388 Q128,378 256,388 T512,388" stroke="#7A5230" stroke-width="1.6" opacity="0.6" fill="none"/>
  <path d="M0,438 Q128,428 256,438 T512,438" stroke="#8F5F3C" stroke-width="2.0" opacity="0.7" fill="none"/>
  <circle cx="75" cy="63" r="1.8" fill="#A46C49" opacity="0.4"/>
  <circle cx="295" cy="113" r="1.3" fill="#8F5F3C" opacity="0.3"/>
  <circle cx="475" cy="173" r="2.1" fill="#A46C49" opacity="0.45"/>
  <circle cx="145" cy="223" r="1.7" fill="#7A5230" opacity="0.35"/>
  <circle cx="385" cy="283" r="2.0" fill="#8F5F3C" opacity="0.4"/>
  <circle cx="195" cy="343" r="1.5" fill="#A46C49" opacity="0.3"/>
  <circle cx="465" cy="403" r="1.9" fill="#7A5230" opacity="0.4"/>
</svg>